<svg width="182" height="30" viewBox="0 0 182 30" fill="none" xmlns="http://www.w3.org/2000/svg">
<g id="logo">
<path id="MOVIEFINDER" fill-rule="evenodd" clip-rule="evenodd" d="M49.2933 7.21028L50.1026 17.3939L50.1625 17.4039L55.0681 7.21028H59.464L56.5567 21.7897H53.2098L53.9291 18.1749L55.4777 11.9266L55.4177 11.9065L50.3823 21.7897H48.1344L47.0654 11.9967H47.0054L46.0663 18.1749L45.3469 21.7897H42L44.9073 7.21028H49.2933ZM71.1534 15.8117C70.7671 17.741 69.9794 19.2547 68.7905 20.3528C67.6016 21.4509 66.1446 22 64.4195 22C62.7943 22 61.4922 21.4042 60.5131 20.2126C59.534 19.021 59.2176 17.5541 59.564 15.8117L60.0935 13.1883C60.4798 11.2523 61.2524 9.73699 62.4114 8.64219C63.5703 7.54739 65.0123 7 66.7374 7C68.3626 7 69.678 7.59913 70.6838 8.7974C71.6896 9.99567 72.0226 11.4593 71.6829 13.1883L71.1534 15.8117ZM68.3559 13.1682C68.5691 12.1001 68.4708 11.239 68.0612 10.5848C67.6516 9.93057 67.0371 9.60347 66.2179 9.60347C65.4919 9.60347 64.8974 9.92723 64.4345 10.5748C63.9716 11.2223 63.6336 12.0868 63.4204 13.1682L62.8909 15.8117C62.6711 16.9065 62.7494 17.7777 63.1257 18.4252C63.502 19.0728 64.1065 19.3965 64.939 19.3965C65.6517 19.3965 66.2578 19.0661 66.7574 18.4052C67.2569 17.7443 67.6133 16.8798 67.8264 15.8117L68.3559 13.1682ZM77.3077 17.8344L77.3177 18.285L77.3777 18.2951L77.5275 17.8745L81.7737 7.21028H85.2705L78.6066 21.7897H74.9999L73.0217 7.21028H76.4985L77.3077 17.8344ZM87.3786 21.7897H84.0516L86.9589 7.21028H90.2859L87.3786 21.7897ZM99.4775 15.5514H94.2723L93.5529 19.1862H99.6973L99.1778 21.7897H89.6864L92.5938 7.21028H102.105L101.586 9.81375H95.4212L94.7918 12.9479H99.997L99.4775 15.5514ZM110.427 15.9219H105.122L103.953 21.7897H100.606L103.514 7.21028H113.115L112.596 9.81375H106.341L105.642 13.3184H110.947L110.427 15.9219ZM115.173 21.7897H111.846L114.754 7.21028H118.081L115.173 21.7897ZM128.891 21.7897H125.554L122.676 12.8378L122.616 12.8478L120.828 21.7897H117.481L120.388 7.21028H123.735L126.613 16.1622L126.673 16.1522L128.461 7.21028H131.798L128.891 21.7897ZM138.512 7.21028C140.024 7.21028 141.281 7.79772 142.283 8.97263C143.286 10.1475 143.617 11.5861 143.277 13.2884L142.748 15.9119C142.375 17.8011 141.617 19.253 140.475 20.2677C139.333 21.2824 137.956 21.7897 136.344 21.7897H130.999L133.906 7.21028H138.512ZM136.733 9.81375L134.865 19.1862H136.634C137.353 19.1862 137.942 18.8992 138.402 18.3251C138.862 17.751 139.195 16.9466 139.401 15.9119L139.931 13.2684C140.137 12.2136 140.035 11.3742 139.626 10.75C139.216 10.1258 138.595 9.81375 137.763 9.81375H136.733ZM153.318 15.5514H148.113L147.394 19.1862H153.538L153.019 21.7897H143.527L146.435 7.21028H155.946L155.426 9.81375H149.262L148.633 12.9479H153.838L153.318 15.5514ZM158.913 16.2023L157.804 21.7897H154.447L157.355 7.21028H162.63C164.108 7.21028 165.256 7.60747 166.072 8.40187C166.888 9.19627 167.166 10.2577 166.906 11.5861C166.739 12.4005 166.421 13.0698 165.952 13.5938C165.482 14.1178 164.844 14.5434 164.039 14.8705C164.785 15.1375 165.292 15.5714 165.562 16.1722C165.832 16.773 165.884 17.4906 165.717 18.3251L165.537 19.2463C165.457 19.6402 165.422 20.0774 165.432 20.5581C165.442 21.0387 165.557 21.3825 165.777 21.5895L165.737 21.7897H162.3C162.094 21.5828 162.004 21.224 162.03 20.7133C162.057 20.2026 162.117 19.7069 162.21 19.2263L162.39 18.3451C162.537 17.6041 162.49 17.0618 162.25 16.718C162.01 16.3742 161.574 16.2023 160.941 16.2023H158.913ZM159.433 13.5988H161.391C161.917 13.5988 162.378 13.4403 162.775 13.1232C163.171 12.8061 163.426 12.3638 163.539 11.7964C163.659 11.1622 163.597 10.6732 163.354 10.3294C163.111 9.98565 162.696 9.81375 162.11 9.81375H160.192L159.433 13.5988Z" fill="white"/>
<g id="noun_960189_cc">
<g id="Group">
<path id="Shape" fill-rule="evenodd" clip-rule="evenodd" d="M181.789 29.8953H15.2264C6.96263 29.8953 0.210983 23.1976 0.210983 15C0.210983 6.80229 6.96263 0.104614 15.2264 0.104614C23.4901 0.104614 30.2418 6.80229 30.2418 15C30.2418 20.4418 27.2879 25.186 22.8923 27.8023H181.789V29.8953ZM28.1319 15C28.1319 7.95345 22.3297 2.19764 15.2264 2.19764C8.12307 2.19764 2.32087 7.95345 2.32087 15C2.32087 22.0465 8.08791 27.8023 15.2264 27.8023C22.3648 27.8023 28.1319 22.0465 28.1319 15Z" fill="#2586FA"/>
<path id="Shape_2" fill-rule="evenodd" clip-rule="evenodd" d="M12.8703 12.6628C12.1319 13.3953 11.1472 13.7442 10.1978 13.7442C9.21318 13.7442 8.26373 13.3604 7.56043 12.6628C6.85713 11.9302 6.47032 11.0232 6.47032 10.0116C6.47032 8.99997 6.85713 8.05811 7.56043 7.36043C9.03735 5.89532 11.3934 5.89532 12.8703 7.36043C13.5736 8.09299 13.9604 8.99997 13.9604 10.0116C13.9604 11.0232 13.5736 11.9651 12.8703 12.6628ZM10.1978 8.37206C9.77582 8.37206 9.35384 8.54648 9.03735 8.86043C8.72087 9.17439 8.54505 9.55811 8.54505 10.0116C8.54505 10.4302 8.72087 10.8488 9.03735 11.1628C9.67032 11.7907 10.7253 11.7907 11.3582 11.1628C11.6747 10.8488 11.8505 10.4302 11.8505 10.0116C11.8505 9.59299 11.6747 9.17439 11.3582 8.86043C11.0418 8.54648 10.6198 8.37206 10.1978 8.37206Z" fill="#2586FA"/>
<path id="Shape_3" fill-rule="evenodd" clip-rule="evenodd" d="M17.6176 22.6395C16.1407 21.1744 16.1407 18.8371 17.6176 17.372C19.0593 15.9069 21.4505 15.9069 22.9626 17.372C24.4396 18.8371 24.4396 21.1744 22.9626 22.6395C22.2242 23.372 21.2396 23.7209 20.2901 23.7209C19.3055 23.7209 18.356 23.372 17.6176 22.6395ZM19.0945 18.8371C18.4615 19.4651 18.4615 20.5116 19.0945 21.1395C19.7275 21.7674 20.7824 21.7674 21.4154 21.1395C22.0483 20.5116 22.0483 19.4651 21.4154 18.8371C21.0989 18.5232 20.6769 18.3488 20.2549 18.3488C19.833 18.3488 19.411 18.5232 19.0945 18.8371Z" fill="#2586FA"/>
<path id="Shape_4" fill-rule="evenodd" clip-rule="evenodd" d="M22.9275 12.6627C22.189 13.3953 21.2044 13.7441 20.2549 13.7441C19.3055 13.7441 18.3209 13.3604 17.6176 12.6627C16.9143 11.9302 16.5275 11.0232 16.5275 10.0116C16.5275 8.99993 16.9143 8.05807 17.6176 7.36039C19.0593 5.93016 21.4505 5.93016 22.9275 7.36039C23.6308 8.09295 24.0176 8.99993 24.0176 10.0116C24.0176 11.0232 23.6308 11.965 22.9275 12.6627ZM20.2549 8.37202C19.833 8.37202 19.411 8.54644 19.0945 8.86039C18.778 9.17435 18.6022 9.55807 18.6022 10.0116C18.6022 10.4302 18.778 10.8488 19.0945 11.1627C19.7275 11.7906 20.7824 11.7906 21.4154 11.1627C21.7319 10.8488 21.9077 10.4302 21.9077 10.0116C21.9077 9.59295 21.7319 9.17435 21.4154 8.86039C21.0989 8.54644 20.6769 8.37202 20.2549 8.37202Z" fill="#2586FA"/>
<path id="Shape_5" fill-rule="evenodd" clip-rule="evenodd" d="M7.52526 22.6395C6.04834 21.1744 6.04834 18.8371 7.52526 17.372C9.00219 15.9069 11.3934 15.9069 12.8703 17.372C14.3472 18.8371 14.3472 21.1744 12.8703 22.6395C12.1319 23.372 11.1472 23.7209 10.1978 23.7209C9.21318 23.7209 8.26373 23.372 7.52526 22.6395ZM9.03735 18.8371C8.40439 19.4651 8.40439 20.5116 9.03735 21.1395C9.67032 21.7674 10.7253 21.7674 11.3582 21.1395C11.9912 20.5116 11.9912 19.4651 11.3582 18.8371C11.0417 18.5232 10.6198 18.3488 10.1978 18.3488C9.77581 18.3488 9.35384 18.5232 9.03735 18.8371Z" fill="#2586FA"/>
<path id="Shape_6" fill-rule="evenodd" clip-rule="evenodd" d="M16.9846 14.9999C16.9846 15.9767 16.211 16.7441 15.2264 16.7441C14.2418 16.7441 13.4681 15.9767 13.4681 14.9999C13.4681 14.0232 14.2418 13.2557 15.2264 13.2557C16.211 13.2557 16.9846 14.0232 16.9846 14.9999ZM15.578 14.9999C15.578 14.7906 15.4374 14.6511 15.2264 14.6511C15.0154 14.6511 14.8747 14.7906 14.8747 14.9999C14.8747 15.2092 15.0154 15.3488 15.2264 15.3488C15.4374 15.3488 15.578 15.2092 15.578 14.9999Z" fill="#2586FA"/>
</g>
</g>
</g>
</svg>
